#!OML:ASF X:\für Bonn\!DataBase\2005_08_10_Bjorn_Final\c3d\bjorn.ASF
:FULLY-SPECIFIED
:DEGREES
172
root 10.3479 7.88406 0.33995 -243.209 85.2915 -231.666
lowerback 44.4334 -5.26436 10.8667
upperback 22.9399 2.49779 3.21745
thorax 5.52996 4.0012 -2.49833
lowerneck -7.04738 -9.21603 3.99489
upperneck 10.1904 -12.4945 -1.60705
head 4.24131 -6.0219 -1.91852
rclavicle 5.08889e-014 7.95139e-015
rhumerus 20.5127 -16.9648 -73.139
rradius 21.7141
rwrist 13.3672
rhand -49.4529 48.3114
rfingers 7.12502
rthumb -22.0639 19.5501
lclavicle 5.08889e-014 7.95139e-015
lhumerus -5.77447 -45.579 79.2929
lradius 41.2362
lwrist -8.62815
lhand -22.5012 -13.3237
lfingers 7.12502
lthumb 3.92477 16.6199
rfemur -166.601 67.9678 80.0214
rtibia 208.084
rfoot -225.311 94.1992
rtoes -6.74384
lfemur -100.305 68.0325 -34.3763
ltibia 152.773
lfoot -34.5912 -28.3902
ltoes -23.3736
173
root 10.3505 7.88491 0.332603 -243.177 85.3467 -231.65
lowerback 44.504 -5.28855 10.9029
upperback 22.9415 2.4998 3.25336
thorax 5.51681 4.00298 -2.47719
lowerneck -7.10854 -9.2138 3.99285
upperneck 10.1856 -12.4905 -1.65093
head 4.24887 -6.02257 -1.9362
rclavicle 1.59028e-014 -1.59028e-014
rhumerus 20.5719 -17.0225 -73.1486
rradius 21.688
rwrist 13.363
rhand -49.4185 48.5855
rfingers 7.12502
rthumb -22.0309 19.8203
lclavicle 1.59028e-014 -1.59028e-014
lhumerus -6.03339 -45.5769 79.4396
lradius 41.1821
lwrist -8.5868
lhand -22.5645 -13.189
lfingers 7.12502
lthumb 3.86364 16.7557
rfemur -166.374 67.9639 80.3171
rtibia 208.113
rfoot -227.839 94.3155
rtoes -6.37356
lfemur -100.331 68.0235 -34.3764
ltibia 152.781
lfoot -34.5771 -28.3696
ltoes -23.4658
174
root 10.3532 7.8844 0.325246 -243.515 85.3956 -231.978
lowerback 44.6058 -5.28977 10.9079
upperback 22.9328 2.52127 3.29195
thorax 5.48323 4.0094 -2.44543
lowerneck -7.08802 -9.21694 4.02764
upperneck 10.1373 -12.4895 -1.72961
head 4.21941 -6.02637 -1.96336
rclavicle -5.725e-014 -2.54444e-014
rhumerus 20.5858 -17.0911 -73.1283
rradius 21.662
rwrist 13.4253
rhand -49.4222 48.9127
rfingers 7.12502
rthumb -22.0344 20.1479
lclavicle -5.725e-014 -2.54444e-014
lhumerus -6.29467 -45.6323 79.5945
lradius 41.138
lwrist -8.45069
lhand -22.5814 -13.0344
lfingers 7.12502
lthumb 3.8473 16.9106
rfemur -165.971 67.951 80.7291
rtibia 208.132
rfoot -229.048 94.3689
rtoes -6.30136
lfemur -100.383 68.2495 -34.4243
ltibia 152.808
lfoot -34.6512 -28.4333
ltoes -23.4955
175
root 10.3554 7.88325 0.317854 -243.761 85.4327 -232.231
lowerback 45.611 -5.44532 11.0222
upperback 22.148 2.61011 3.07243
thorax 5.31573 4.01433 -2.41772
lowerneck -7.09726 -9.2154 4.0865
upperneck 10.1142 -12.4877 -1.79707
head 4.20423 -6.02761 -1.99395
rclavicle 4.13472e-014 1.59028e-014
rhumerus 20.642 -17.1872 -73.1716
rradius 21.6538
rwrist 13.5288
rhand -49.4331 49.1278
rfingers 7.12502
rthumb -22.0449 20.3643
lclavicle 4.13472e-014 1.59028e-014
lhumerus -6.52276 -45.6484 79.689
lradius 41.0878
lwrist -8.43783
lhand -22.6567 -12.8957
lfingers 7.12502
lthumb 3.77466 17.0506
rfemur -165.725 67.9399 80.9858
rtibia 208.148
rfoot -229.165 94.321
rtoes -6.46486
lfemur -100.431 68.3457 -34.469
ltibia 152.839
lfoot -34.7389 -28.3806
ltoes -23.7118
176
root 10.3574 7.88087 0.31104 -244.202 85.4392 -232.64
lowerback 45.7466 -5.44732 10.978
upperback 22.1209 2.61709 3.10517
thorax 5.25806 4.00718 -2.36496
lowerneck -7.0446 -9.21687 4.13189
upperneck 10.087 -12.4802 -1.90315
head 4.17367 -6.02825 -2.03012
rclavicle 8.5875e-014 6.20208e-014
rhumerus 20.6675 -17.2672 -73.1905
rradius 21.6222
rwrist 13.7196
rhand -49.5058 49.3432
rfingers 7.12502
rthumb -22.1147 20.588
lclavicle 8.5875e-014 6.20208e-014
lhumerus -6.83674 -45.5948 79.882
lradius 41.0194
lwrist -8.44252
lhand -22.6774 -12.7689
lfingers 7.12502
lthumb 3.75465 17.1778
rfemur -165.734 67.8964 80.9125
rtibia 208.163
rfoot -229.093 94.3546
rtoes -6.27639
lfemur -100.371 68.5004 -34.4465
ltibia 152.857
lfoot -34.7417 -28.4889
ltoes -23.6359
177
root 10.3597 7.87896 0.30351 -244.559 85.4823 -232.984
lowerback 45.8294 -5.45284 10.9776
upperback 22.1253 2.63001 3.1288
thorax 5.25005 4.0126 -2.34126
lowerneck -7.02688 -9.21835 4.19645
upperneck 10.0587 -12.4809 -1.97602
head 4.15048 -6.03077 -2.06134
rclavicle -1.04958e-013 -5.08889e-014
rhumerus 20.7121 -17.309 -73.1938
rradius 21.6333
rwrist 13.8108
rhand -49.5863 49.4495
rfingers 7.12502
rthumb -22.192 20.7034
lclavicle -1.04958e-013 -5.08889e-014
lhumerus -7.0286 -45.5921 79.9717
lradius 40.9482
lwrist -8.39119
lhand -22.6988 -12.6562
lfingers 7.12502
lthumb 3.73398 17.2909
rfemur -165.469 67.8781 81.1744
rtibia 208.187
rfoot -230.55 94.4797
rtoes -6.02053
lfemur -100.401 68.6607 -34.4717
ltibia 152.892
lfoot -34.8259 -28.4877
ltoes -23.7313
